<svg xmlns="http://www.w3.org/2000/svg" xmlns:cc="http://web.resource.org/cc/" xmlns:svg="http://www.w3.org/2000/svg" xmlns:xlink="http://www.w3.org/1999/xlink" id="svg2" overflow="visible" version="1.0" viewBox="0 0 600 170"><defs id="defs4"><linearGradient id="linearGradient6250"><stop id="stop6252" offset="0" stop-color="#bcbcbc" stop-opacity="1"/><stop id="stop6254" offset="1" stop-color="#bcbcbc" stop-opacity="0"/></linearGradient><linearGradient id="linearGradient5267"><stop id="stop5269" offset="0" stop-color="#222" stop-opacity="1"/><stop id="stop5277" offset=".606" stop-color="#515151" stop-opacity="1"/><stop id="stop5279" offset=".626" stop-color="#818181" stop-opacity="1"/><stop id="stop5271" offset="1" stop-color="#888" stop-opacity="1"/></linearGradient><linearGradient id="linearGradient5247"><stop id="stop5249" offset="0" stop-color="#fff" stop-opacity="1"/><stop id="stop5251" offset="1" stop-color="#fff" stop-opacity="0"/></linearGradient><linearGradient id="linearGradient5234"><stop id="stop5236" offset="0" stop-color="#000" stop-opacity="1"/><stop id="stop5242" offset=".813" stop-color="#3c3c3c" stop-opacity="1"/><stop id="stop5238" offset="1" stop-color="#000" stop-opacity="1"/></linearGradient><linearGradient id="linearGradient30545"><stop id="stop30547" offset="0" stop-color="#009300" stop-opacity="1"/><stop id="stop30549" offset="1" stop-color="#f2fff2" stop-opacity="1"/></linearGradient><linearGradient id="linearGradient28588"><stop id="stop28590" offset="0" stop-color="#fff" stop-opacity="1"/><stop id="stop28592" offset="1" stop-color="#fff" stop-opacity="0"/></linearGradient><linearGradient id="linearGradient16199"><stop id="stop16201" offset="0" stop-color="#fff" stop-opacity="0"/><stop id="stop16205" offset=".5" stop-color="#fff" stop-opacity=".637"/><stop id="stop16207" offset=".75" stop-color="#fff" stop-opacity=".505"/><stop id="stop16203" offset="1" stop-color="#fff" stop-opacity="0"/></linearGradient><linearGradient id="linearGradient16167"><stop id="stop16169" offset="0" stop-color="#fff" stop-opacity="0"/><stop id="stop16175" offset=".177" stop-color="#fff" stop-opacity=".5"/><stop id="stop16171" offset="1" stop-color="#fff" stop-opacity="0"/></linearGradient><linearGradient id="linearGradient16159"><stop id="stop16161" offset="0" stop-color="#fff" stop-opacity="1"/><stop id="stop16163" offset="1" stop-color="#fff" stop-opacity="0"/></linearGradient><linearGradient id="linearGradient16120"><stop id="stop16122" offset="0" stop-color="#fff" stop-opacity="1"/><stop id="stop16124" offset="1" stop-color="#fff" stop-opacity="0"/></linearGradient><linearGradient id="linearGradient14136"><stop id="stop14138" offset="0" stop-color="#9eecff" stop-opacity="1"/><stop id="stop14140" offset="1" stop-color="#87efff" stop-opacity="1"/></linearGradient><linearGradient id="linearGradient11157"><stop id="stop11159" offset="0" stop-color="#d2ffd2" stop-opacity="1"/><stop id="stop3244" offset=".865" stop-color="#09a809" stop-opacity="1"/><stop id="stop11161" offset="1" stop-color="#009600" stop-opacity="1"/></linearGradient><linearGradient id="linearGradient7271"><stop id="stop7273" offset="0" stop-color="#3fc200" stop-opacity="1"/><stop id="stop16132" offset=".5" stop-color="#2ca900" stop-opacity="1"/><stop id="stop7275" offset="1" stop-color="#0a9600" stop-opacity="1"/></linearGradient><linearGradient id="linearGradient7261"><stop id="stop7263" offset="0" stop-color="#acfffd" stop-opacity="1"/><stop id="stop7265" offset="1" stop-color="#002099" stop-opacity="1"/></linearGradient><linearGradient id="linearGradient24487" x1="-298.282" x2="-261.157" y1="220.244" y2="309.857" gradientTransform="matrix(0.4793068,0,0,0.4981964,627.57818,237.96346)" gradientUnits="userSpaceOnUse" xlink:href="#linearGradient16120"/><linearGradient id="linearGradient24490" x1="-298.282" x2="-261.157" y1="220.244" y2="309.857" gradientTransform="matrix(0.4793068,0,0,0.4981964,256.96392,240.51459)" gradientUnits="userSpaceOnUse" xlink:href="#linearGradient16120"/><linearGradient id="linearGradient24498" x1="155.671" x2="153.826" y1="237.284" y2="84.905" gradientTransform="matrix(0.4793068,0,0,0.4981964,256.96393,240.51459)" gradientUnits="userSpaceOnUse" xlink:href="#linearGradient14136"/><radialGradient id="radialGradient24501" cx="-425.721" cy="-489.543" r="171.964" fx="-425.721" fy="-489.543" gradientTransform="matrix(-9.7213604e-2,-0.3675825,0.4243148,-0.1262616,692.40673,211.62026)" gradientUnits="userSpaceOnUse" xlink:href="#linearGradient11157"/><radialGradient id="radialGradient24504" cx="-72.264" cy="227.889" r="171.964" fx="-72.264" fy="227.889" gradientTransform="matrix(-0.1029016,0.3658373,-0.4405463,-0.1338752,250.70182,490.47453)" gradientUnits="userSpaceOnUse" xlink:href="#linearGradient11157"/><linearGradient id="linearGradient24507" x1="159.113" x2="159.113" y1="169.739" y2="277.062" gradientTransform="matrix(0.4793068,0,0,0.4981964,256.96392,240.51459)" gradientUnits="userSpaceOnUse" xlink:href="#linearGradient16199"/><linearGradient id="linearGradient24511" x1="110.133" x2="110.21" y1="461.759" y2="430.164" gradientTransform="matrix(0.4793068,0,0,0.4981964,256.96392,240.51459)" gradientUnits="userSpaceOnUse" xlink:href="#linearGradient7271"/><linearGradient id="linearGradient24514" x1="97.294" x2="96.014" y1="498.044" y2="51.26" gradientTransform="matrix(0.4793068,0,0,0.4981964,256.96392,240.51459)" gradientUnits="userSpaceOnUse" xlink:href="#linearGradient7271"/><radialGradient id="radialGradient27586" cx="395.057" cy="189.356" r="27.198" fx="395.057" fy="189.356" gradientTransform="matrix(-0.2638488,0.8376893,-0.7900431,-0.2442989,648.89124,-93.629062)" gradientUnits="userSpaceOnUse" xlink:href="#linearGradient11157"/><linearGradient id="linearGradient3248" x1="104.609" x2="108.633" y1="183.301" y2="255.722" gradientTransform="matrix(1,0,0,1.0584669,0,-16.570597)" gradientUnits="userSpaceOnUse" xlink:href="#linearGradient28588"/><linearGradient id="linearGradient3252" x1="104.609" x2="108.633" y1="183.301" y2="255.722" gradientTransform="matrix(0.5479266,0,0,0.5857064,276.48486,205.31125)" gradientUnits="userSpaceOnUse" xlink:href="#linearGradient28588"/><radialGradient id="radialGradient8290" cx="173.108" cy="532.029" r="61.067" fx="173.108" fy="532.029" gradientUnits="userSpaceOnUse" xlink:href="#linearGradient5234"/><linearGradient id="linearGradient8292" x1="137.689" x2="147.468" y1="430.781" y2="534.119" gradientTransform="matrix(0.6753371,0,0,0.6753371,56.53321,171.33604)" gradientUnits="userSpaceOnUse" xlink:href="#linearGradient5247"/><linearGradient id="linearGradient8294" x1="132.698" x2="120.109" y1="563.979" y2="549.941" gradientUnits="userSpaceOnUse" xlink:href="#linearGradient6250"/><linearGradient id="linearGradient8296" x1="132.698" x2="120.109" y1="563.979" y2="549.941" gradientUnits="userSpaceOnUse" xlink:href="#linearGradient6250"/><linearGradient id="linearGradient8298" x1="132.698" x2="120.109" y1="563.979" y2="549.941" gradientUnits="userSpaceOnUse" xlink:href="#linearGradient6250"/><linearGradient id="linearGradient8300" x1="132.698" x2="120.109" y1="563.979" y2="549.941" gradientUnits="userSpaceOnUse" xlink:href="#linearGradient6250"/><linearGradient id="linearGradient8302" x1="132.698" x2="120.109" y1="563.979" y2="549.941" gradientUnits="userSpaceOnUse" xlink:href="#linearGradient6250"/><linearGradient id="linearGradient8304" x1="132.698" x2="120.109" y1="563.979" y2="549.941" gradientUnits="userSpaceOnUse" xlink:href="#linearGradient6250"/><linearGradient id="linearGradient8306" x1="132.698" x2="120.109" y1="563.979" y2="549.941" gradientUnits="userSpaceOnUse" xlink:href="#linearGradient6250"/><radialGradient id="radialGradient8308" cx="177.85" cy="532.736" r="8.09" fx="177.85" fy="532.736" gradientUnits="userSpaceOnUse" xlink:href="#linearGradient16120"/><radialGradient id="radialGradient8338" cx="173.108" cy="532.029" r="61.067" fx="173.108" fy="532.029" gradientUnits="userSpaceOnUse" xlink:href="#linearGradient5234"/><linearGradient id="linearGradient8340" x1="137.689" x2="147.468" y1="430.781" y2="534.119" gradientTransform="matrix(0.6753371,0,0,0.6753371,56.53321,171.33604)" gradientUnits="userSpaceOnUse" xlink:href="#linearGradient5247"/><linearGradient id="linearGradient8342" x1="132.698" x2="120.109" y1="563.979" y2="549.941" gradientUnits="userSpaceOnUse" xlink:href="#linearGradient6250"/><linearGradient id="linearGradient8344" x1="132.698" x2="120.109" y1="563.979" y2="549.941" gradientUnits="userSpaceOnUse" xlink:href="#linearGradient6250"/><linearGradient id="linearGradient8346" x1="132.698" x2="120.109" y1="563.979" y2="549.941" gradientUnits="userSpaceOnUse" xlink:href="#linearGradient6250"/><linearGradient id="linearGradient8348" x1="132.698" x2="120.109" y1="563.979" y2="549.941" gradientUnits="userSpaceOnUse" xlink:href="#linearGradient6250"/><linearGradient id="linearGradient8350" x1="132.698" x2="120.109" y1="563.979" y2="549.941" gradientUnits="userSpaceOnUse" xlink:href="#linearGradient6250"/><linearGradient id="linearGradient8352" x1="132.698" x2="120.109" y1="563.979" y2="549.941" gradientUnits="userSpaceOnUse" xlink:href="#linearGradient6250"/><linearGradient id="linearGradient8354" x1="132.698" x2="120.109" y1="563.979" y2="549.941" gradientUnits="userSpaceOnUse" xlink:href="#linearGradient6250"/><radialGradient id="radialGradient8356" cx="177.85" cy="532.736" r="8.09" fx="177.85" fy="532.736" gradientUnits="userSpaceOnUse" xlink:href="#linearGradient16120"/><filter id="filter13283" width="1.036" height="1.975" x="-.018" y="-.487"><feGaussianBlur id="feGaussianBlur13285" stdDeviation="4.544"/></filter></defs><metadata id="metadata7"/><g id="layer1" transform="translate(-42.878948,-246.43515)"><g id="g2329"><rect id="rect9337" width="509.515" height="18.287" x="81.976" y="469.699" fill="#666" fill-opacity="1" fill-rule="evenodd" stroke="#bcbcbc" stroke-dasharray="none" stroke-dashoffset="0" stroke-linecap="butt" stroke-linejoin="miter" stroke-miterlimit="4" stroke-opacity="1" stroke-width=".6" marker-end="none" marker-mid="none" marker-start="none" color="#000" display="inline" enable-background="accumulate" filter="url(#filter13283)" opacity="1" overflow="visible" rx="57.77" ry="9.144" transform="matrix(0.9917818,0,0,2.8218659,20.731679,-862.74208)" visibility="visible" style="marker:none"/><path id="path8312" fill="#000" fill-rule="evenodd" stroke="#000" stroke-linecap="butt" stroke-linejoin="miter" stroke-opacity="1" stroke-width="1" d="M 478.22862,466.06798 L 592.3204,458.96264 L 595.87961,450.14949 L 581.92583,415.59905 L 477.23942,410.0469 C 477.56916,428.7206 477.89889,388.20462 478.22862,466.06798 z"/><path id="path4342" fill="url(#linearGradient24514)" fill-opacity="1" fill-rule="evenodd" stroke="none" stroke-linecap="butt" stroke-linejoin="miter" stroke-opacity="1" stroke-width="1" d="M 311.27538,273.9716 C 223.92664,274.23445 169.32125,328.15282 126.26295,362.65055 C 135.67234,358.9952 145.92057,356.99914 156.63901,356.99914 C 202.49313,356.99914 239.70888,393.73654 239.70888,439.01472 C 239.70888,448.90716 237.93099,458.39462 234.67616,467.17838 L 450.40915,466.63348 C 446.80473,457.449 444.82223,447.4584 444.82223,437.02194 C 444.82224,391.74376 482.03798,355.00635 527.8921,355.00635 C 544.12094,355.00635 559.26555,359.61508 572.06322,367.57024 C 566.99433,363.16819 562.08685,359.40316 557.92366,356.99914 C 540.67087,347.03651 502.99779,344.91257 494.02608,343.04964 C 485.15109,341.20679 482.47077,340.7477 479.97639,338.39461 C 470.7166,329.6593 399.57775,265.07205 311.27538,273.9716 z"/><path id="path12136" fill="url(#linearGradient24511)" fill-opacity="1" fill-rule="evenodd" stroke="none" stroke-dasharray="none" stroke-dashoffset="0" stroke-linecap="butt" stroke-linejoin="miter" stroke-miterlimit="4" stroke-opacity="1" stroke-width="1" marker-end="none" marker-mid="none" marker-start="none" d="M 239.10297,451.44522 L 448.02207,450.88265 L 451.26952,467.19723 L 229.36062,467.19723 L 239.10297,451.44522 z" color="#000" display="inline" enable-background="accumulate" overflow="visible" visibility="visible" style="marker:none"/><path id="path2371" fill="#b3b3b3" fill-opacity="1" fill-rule="evenodd" stroke="none" stroke-linecap="butt" stroke-linejoin="miter" stroke-opacity="1" stroke-width="1.909" d="M 547.35476,364.16328 C 568.27069,382.81611 586.51043,403.01708 601.60742,424.53751 C 607.94377,416.50609 608.71285,399.66918 606.19194,395.4804 C 595.60254,377.88484 573.35032,366.67876 547.35476,364.16328 z" opacity=".992"/><path id="path16188" fill="url(#linearGradient24507)" fill-opacity="1" fill-rule="evenodd" stroke="none" stroke-linecap="butt" stroke-linejoin="miter" stroke-opacity="1" stroke-width="1" d="M 248.65095,289.63364 C 248.30146,289.75299 247.95196,289.87236 247.60247,289.99172 C 212.83076,301.96482 182.00275,323.51919 153.62837,347.20646 C 153.24408,347.82021 149.79011,350.62805 147.74188,352.46866 C 145.40581,353.73559 142.63999,355.42479 139.30909,357.68415 C 173.34845,361.1067 212.6371,384.69767 222.52872,411.28697 C 226.25203,420.94094 227.75666,431.14204 227.42664,441.28774 C 308.4011,441.23093 389.29106,437.49639 470.24048,436.35248 C 473.53025,413.03952 489.74552,392.67636 508.48017,375.79047 C 514.35121,370.20242 521.44447,365.39038 526.60396,359.38114 C 527.81842,357.55505 526.77795,355.24227 525.61539,353.8854 C 526.5206,353.79387 525.53092,354.14798 517.89893,352.50861 C 498.31497,348.55541 476.8486,351.11148 465.98136,332.61264 C 465.10346,331.11824 477.35234,351.26292 475.66113,351.24107 C 409.98864,350.39273 348.04897,349.18507 291.28866,348.74919 C 291.00122,348.74699 290.1134,298.34207 289.58026,285.67792 C 287.81084,285.59754 277.61551,287.1955 276.43532,287.39677 C 276.29073,288.5901 274.029,348.22365 273.175,348.18735 C 239.7815,346.76788 206.36268,347.53519 169.79,347.53341 C 171.13389,346.47534 172.30948,345.20422 173.25,343.65681 C 182.90089,327.77841 219.26205,303.02828 248.65095,289.63364 z" opacity=".6"/><path id="path8310" fill="#000" fill-rule="evenodd" stroke="#000" stroke-linecap="butt" stroke-linejoin="miter" stroke-opacity="1" stroke-width="1" d="M 94.382711,451.33227 L 215.38451,466.17692 L 221.6629,450.76133 L 207.39383,414.79161 L 104.08569,409.65307 L 94.382711,451.33227 z"/><g id="g8277" transform="matrix(0.9205547,0,0,0.9208527,-0.8792611,-44.496299)"><path id="path3292" fill="url(#radialGradient8290)" fill-opacity="1" fill-rule="evenodd" stroke="none" stroke-dasharray="none" stroke-dashoffset="0" stroke-linecap="butt" stroke-linejoin="miter" stroke-miterlimit="4" stroke-opacity="1" stroke-width="11.4" marker-end="none" marker-mid="none" marker-start="none" d="M 234.17511,532.02911 A 61.067215,61.067215 0 1 1 112.04068,532.02911 A 61.067215,61.067215 0 1 1 234.17511,532.02911 z" color="#000" display="inline" enable-background="accumulate" opacity="1" overflow="visible" visibility="visible" style="marker:none"/><path marker-end="none" style="marker:none" id="path3294" fill="#999" fill-opacity="1" fill-rule="evenodd" stroke="none" stroke-dasharray="none" stroke-dashoffset="0" stroke-linecap="butt" stroke-linejoin="miter" stroke-miterlimit="4" stroke-opacity="1" stroke-width="11.4" marker-mid="none" marker-start="none" d="M 234.17511,532.02911 A 61.067215,61.067215 0 1 1 112.04068,532.02911 A 61.067215,61.067215 0 1 1 234.17511,532.02911 z" color="#000" display="inline" enable-background="accumulate" opacity="1" overflow="visible" transform="matrix(0.7024793,0,0,0.7024793,51.834675,156.96365)" visibility="visible"/><path id="path5244" fill="url(#linearGradient8292)" fill-opacity="1" fill-rule="evenodd" stroke="none" stroke-dashoffset="0" stroke-linecap="butt" stroke-linejoin="miter" stroke-miterlimit="4" stroke-opacity="1" stroke-width="11.4" marker-end="none" marker-mid="none" marker-start="none" d="M 214.68034,530.63502 C 178.88572,489.45722 168.62088,541.00407 132.19844,530.63502 C 132.19844,507.87001 150.67438,489.39407 173.43939,489.39407 C 196.2044,489.39407 214.68034,507.87001 214.68034,530.63502 z" color="#000" display="inline" enable-background="accumulate" overflow="visible" visibility="visible" style="marker:none"/><path id="path6262" fill="#080808" fill-opacity="1" fill-rule="evenodd" stroke="url(#linearGradient8294)" stroke-dasharray="none" stroke-dashoffset="0" stroke-linecap="butt" stroke-linejoin="miter" stroke-miterlimit="4" stroke-opacity="1" stroke-width="2.321" marker-end="none" marker-mid="none" marker-start="none" d="M 136.57806,553.78595 A 12.099755,9.6135044 0 1 1 112.37855,553.78595 A 12.099755,9.6135044 0 1 1 136.57806,553.78595 z" color="#000" display="inline" enable-background="accumulate" overflow="visible" transform="matrix(0.4048369,0.5192086,-0.5198189,0.4053129,387.18968,223.24864)" visibility="visible" style="marker:none"/><path id="path6266" fill="#080808" fill-opacity="1" fill-rule="evenodd" stroke="url(#linearGradient8296)" stroke-dasharray="none" stroke-dashoffset="0" stroke-linecap="butt" stroke-linejoin="miter" stroke-miterlimit="4" stroke-opacity="1" stroke-width="2.321" marker-end="none" marker-mid="none" marker-start="none" d="M 136.57806,553.78595 A 12.099755,9.6135044 0 1 1 112.37855,553.78595 A 12.099755,9.6135044 0 1 1 136.57806,553.78595 z" color="#000" display="inline" enable-background="accumulate" overflow="visible" transform="matrix(-0.1583185,0.6390663,-0.6398176,-0.1585045,546.91967,509.2811)" visibility="visible" style="marker:none"/><path id="path6270" fill="#080808" fill-opacity="1" fill-rule="evenodd" stroke="url(#linearGradient8298)" stroke-dasharray="none" stroke-dashoffset="0" stroke-linecap="butt" stroke-linejoin="miter" stroke-miterlimit="4" stroke-opacity="1" stroke-width="2.321" marker-end="none" marker-mid="none" marker-start="none" d="M 136.57806,553.78595 A 12.099755,9.6135044 0 1 1 112.37855,553.78595 A 12.099755,9.6135044 0 1 1 136.57806,553.78595 z" color="#000" display="inline" enable-background="accumulate" overflow="visible" transform="matrix(-0.6015688,0.2675545,-0.2678692,-0.6022759,419.48239,812.7816)" visibility="visible" style="marker:none"/><path id="path6274" fill="#080808" fill-opacity="1" fill-rule="evenodd" stroke="url(#linearGradient8300)" stroke-dasharray="none" stroke-dashoffset="0" stroke-linecap="butt" stroke-linejoin="miter" stroke-miterlimit="4" stroke-opacity="1" stroke-width="2.321" marker-end="none" marker-mid="none" marker-start="none" d="M 136.57806,553.78595 A 12.099755,9.6135044 0 1 1 112.37855,553.78595 A 12.099755,9.6135044 0 1 1 136.57806,553.78595 z" color="#000" display="inline" enable-background="accumulate" overflow="visible" transform="matrix(-0.5974268,-0.2766796,0.2770047,-0.5981293,122.7783,901.93159)" visibility="visible" style="marker:none"/><path id="path6278" fill="#080808" fill-opacity="1" fill-rule="evenodd" stroke="url(#linearGradient8302)" stroke-dasharray="none" stroke-dashoffset="0" stroke-linecap="butt" stroke-linejoin="miter" stroke-miterlimit="4" stroke-opacity="1" stroke-width="2.321" marker-end="none" marker-mid="none" marker-start="none" d="M 136.57806,553.78595 A 12.099755,9.6135044 0 1 1 112.37855,553.78595 A 12.099755,9.6135044 0 1 1 136.57806,553.78595 z" color="#000" display="inline" enable-background="accumulate" overflow="visible" transform="matrix(-0.1634684,-0.6377684,0.6385181,-0.1636609,-146.51407,726.56932)" visibility="visible" style="marker:none"/><path id="path6282" fill="#080808" fill-opacity="1" fill-rule="evenodd" stroke="url(#linearGradient8304)" stroke-dasharray="none" stroke-dashoffset="0" stroke-linecap="butt" stroke-linejoin="miter" stroke-miterlimit="4" stroke-opacity="1" stroke-width="2.321" marker-end="none" marker-mid="none" marker-start="none" d="M 136.57806,553.78595 A 12.099755,9.6135044 0 1 1 112.37855,553.78595 A 12.099755,9.6135044 0 1 1 136.57806,553.78595 z" color="#000" display="inline" enable-background="accumulate" overflow="visible" transform="matrix(0.4249984,-0.5028388,0.5034301,0.4254978,-171.8329,383.91767)" visibility="visible" style="marker:none"/><path id="path6288" fill="#080808" fill-opacity="1" fill-rule="evenodd" stroke="url(#linearGradient8306)" stroke-dasharray="none" stroke-dashoffset="0" stroke-linecap="butt" stroke-linejoin="miter" stroke-miterlimit="4" stroke-opacity="1" stroke-width="2.321" marker-end="none" marker-mid="none" marker-start="none" d="M 136.57806,553.78595 A 12.099755,9.6135044 0 1 1 112.37855,553.78595 A 12.099755,9.6135044 0 1 1 136.57806,553.78595 z" color="#000" display="inline" enable-background="accumulate" overflow="visible" transform="matrix(0.6579028,2.5187524e-2,-2.5216986e-2,0.6586763,76.118012,168.62886)" visibility="visible" style="marker:none"/><path marker-end="none" style="marker:none" id="path6329" fill="url(#radialGradient8308)" fill-opacity="1" fill-rule="evenodd" stroke="#bcbcbc" stroke-dasharray="none" stroke-dashoffset="0" stroke-linecap="butt" stroke-linejoin="miter" stroke-miterlimit="4" stroke-opacity="1" stroke-width=".6" marker-mid="none" marker-start="none" d="M 183.98258,531.07819 A 7.7902536,7.7902536 0 1 1 168.40207,531.07819 A 7.7902536,7.7902536 0 1 1 183.98258,531.07819 z" color="#000" display="inline" enable-background="accumulate" opacity=".377" overflow="visible" transform="translate(-2.7529339,-0.3750966)" visibility="visible"/></g><path stroke-width="2.9" style="marker:none" id="path2378" fill="url(#radialGradient24504)" fill-opacity="1" fill-rule="nonzero" stroke="none" stroke-dashoffset="0" stroke-linecap="butt" stroke-linejoin="miter" stroke-miterlimit="4" stroke-opacity="1" marker-end="none" marker-mid="none" marker-start="none" d="M 157.11082,356.42172 C 111.2567,356.42172 75.318935,393.1747 75.318935,438.45287 C 75.805657,450.52989 88.303499,450.16179 98.205564,453.85047 C 102.07419,411.66731 125.69789,392.6589 161.54048,392.97895 C 198.23886,393.29902 225.00824,431.24956 215.40361,467.19559 L 234.5331,467.16027 C 238.12534,457.98929 240.1657,448.8708 240.1657,438.45287 C 240.1657,393.1747 202.96494,356.42172 157.11082,356.42172 z" color="#000" display="inline" enable-background="accumulate" overflow="visible" visibility="visible"/><g id="g8314" transform="matrix(0.9205547,0,0,0.9208527,373.65273,-43.688859)"><path stroke-width="11.4" style="marker:none" id="path8316" fill="url(#radialGradient8338)" fill-opacity="1" fill-rule="evenodd" stroke="none" stroke-dasharray="none" stroke-dashoffset="0" stroke-linecap="butt" stroke-linejoin="miter" stroke-miterlimit="4" stroke-opacity="1" marker-end="none" marker-mid="none" marker-start="none" d="M 234.17511,532.02911 A 61.067215,61.067215 0 1 1 112.04068,532.02911 A 61.067215,61.067215 0 1 1 234.17511,532.02911 z" color="#000" display="inline" enable-background="accumulate" opacity="1" overflow="visible" visibility="visible"/><path id="path8318" fill="#999" fill-opacity="1" fill-rule="evenodd" stroke="none" stroke-dasharray="none" stroke-dashoffset="0" stroke-linecap="butt" stroke-linejoin="miter" stroke-miterlimit="4" stroke-opacity="1" stroke-width="11.4" marker-end="none" marker-mid="none" marker-start="none" d="M 234.17511,532.02911 A 61.067215,61.067215 0 1 1 112.04068,532.02911 A 61.067215,61.067215 0 1 1 234.17511,532.02911 z" color="#000" display="inline" enable-background="accumulate" opacity="1" overflow="visible" transform="matrix(0.7024793,0,0,0.7024793,51.834675,156.96365)" visibility="visible" style="marker:none"/><path stroke-width="11.4" style="marker:none" id="path8320" fill="url(#linearGradient8340)" fill-opacity="1" fill-rule="evenodd" stroke="none" stroke-dashoffset="0" stroke-linecap="butt" stroke-linejoin="miter" stroke-miterlimit="4" stroke-opacity="1" marker-end="none" marker-mid="none" marker-start="none" d="M 214.68034,530.63502 C 178.88572,489.45722 168.62088,541.00407 132.19844,530.63502 C 132.19844,507.87001 150.67438,489.39407 173.43939,489.39407 C 196.2044,489.39407 214.68034,507.87001 214.68034,530.63502 z" color="#000" display="inline" enable-background="accumulate" overflow="visible" visibility="visible"/><path id="path8322" fill="#080808" fill-opacity="1" fill-rule="evenodd" stroke="url(#linearGradient8342)" stroke-dasharray="none" stroke-dashoffset="0" stroke-linecap="butt" stroke-linejoin="miter" stroke-miterlimit="4" stroke-opacity="1" stroke-width="2.321" marker-end="none" marker-mid="none" marker-start="none" d="M 136.57806,553.78595 A 12.099755,9.6135044 0 1 1 112.37855,553.78595 A 12.099755,9.6135044 0 1 1 136.57806,553.78595 z" color="#000" display="inline" enable-background="accumulate" overflow="visible" transform="matrix(0.4048369,0.5192086,-0.5198189,0.4053129,387.18968,223.24864)" visibility="visible" style="marker:none"/><path id="path8324" fill="#080808" fill-opacity="1" fill-rule="evenodd" stroke="url(#linearGradient8344)" stroke-dasharray="none" stroke-dashoffset="0" stroke-linecap="butt" stroke-linejoin="miter" stroke-miterlimit="4" stroke-opacity="1" stroke-width="2.321" marker-end="none" marker-mid="none" marker-start="none" d="M 136.57806,553.78595 A 12.099755,9.6135044 0 1 1 112.37855,553.78595 A 12.099755,9.6135044 0 1 1 136.57806,553.78595 z" color="#000" display="inline" enable-background="accumulate" overflow="visible" transform="matrix(-0.1583185,0.6390663,-0.6398176,-0.1585045,546.91967,509.2811)" visibility="visible" style="marker:none"/><path id="path8326" fill="#080808" fill-opacity="1" fill-rule="evenodd" stroke="url(#linearGradient8346)" stroke-dasharray="none" stroke-dashoffset="0" stroke-linecap="butt" stroke-linejoin="miter" stroke-miterlimit="4" stroke-opacity="1" stroke-width="2.321" marker-end="none" marker-mid="none" marker-start="none" d="M 136.57806,553.78595 A 12.099755,9.6135044 0 1 1 112.37855,553.78595 A 12.099755,9.6135044 0 1 1 136.57806,553.78595 z" color="#000" display="inline" enable-background="accumulate" overflow="visible" transform="matrix(-0.6015688,0.2675545,-0.2678692,-0.6022759,419.48239,812.7816)" visibility="visible" style="marker:none"/><path id="path8328" fill="#080808" fill-opacity="1" fill-rule="evenodd" stroke="url(#linearGradient8348)" stroke-dasharray="none" stroke-dashoffset="0" stroke-linecap="butt" stroke-linejoin="miter" stroke-miterlimit="4" stroke-opacity="1" stroke-width="2.321" marker-end="none" marker-mid="none" marker-start="none" d="M 136.57806,553.78595 A 12.099755,9.6135044 0 1 1 112.37855,553.78595 A 12.099755,9.6135044 0 1 1 136.57806,553.78595 z" color="#000" display="inline" enable-background="accumulate" overflow="visible" transform="matrix(-0.5974268,-0.2766796,0.2770047,-0.5981293,122.7783,901.93159)" visibility="visible" style="marker:none"/><path id="path8330" fill="#080808" fill-opacity="1" fill-rule="evenodd" stroke="url(#linearGradient8350)" stroke-dasharray="none" stroke-dashoffset="0" stroke-linecap="butt" stroke-linejoin="miter" stroke-miterlimit="4" stroke-opacity="1" stroke-width="2.321" marker-end="none" marker-mid="none" marker-start="none" d="M 136.57806,553.78595 A 12.099755,9.6135044 0 1 1 112.37855,553.78595 A 12.099755,9.6135044 0 1 1 136.57806,553.78595 z" color="#000" display="inline" enable-background="accumulate" overflow="visible" transform="matrix(-0.1634684,-0.6377684,0.6385181,-0.1636609,-146.51407,726.56932)" visibility="visible" style="marker:none"/><path id="path8332" fill="#080808" fill-opacity="1" fill-rule="evenodd" stroke="url(#linearGradient8352)" stroke-dasharray="none" stroke-dashoffset="0" stroke-linecap="butt" stroke-linejoin="miter" stroke-miterlimit="4" stroke-opacity="1" stroke-width="2.321" marker-end="none" marker-mid="none" marker-start="none" d="M 136.57806,553.78595 A 12.099755,9.6135044 0 1 1 112.37855,553.78595 A 12.099755,9.6135044 0 1 1 136.57806,553.78595 z" color="#000" display="inline" enable-background="accumulate" overflow="visible" transform="matrix(0.4249984,-0.5028388,0.5034301,0.4254978,-171.8329,383.91767)" visibility="visible" style="marker:none"/><path id="path8334" fill="#080808" fill-opacity="1" fill-rule="evenodd" stroke="url(#linearGradient8354)" stroke-dasharray="none" stroke-dashoffset="0" stroke-linecap="butt" stroke-linejoin="miter" stroke-miterlimit="4" stroke-opacity="1" stroke-width="2.321" marker-end="none" marker-mid="none" marker-start="none" d="M 136.57806,553.78595 A 12.099755,9.6135044 0 1 1 112.37855,553.78595 A 12.099755,9.6135044 0 1 1 136.57806,553.78595 z" color="#000" display="inline" enable-background="accumulate" overflow="visible" transform="matrix(0.6579028,2.5187524e-2,-2.5216986e-2,0.6586763,76.118012,168.62886)" visibility="visible" style="marker:none"/><path marker-end="none" style="marker:none" id="path8336" fill="url(#radialGradient8356)" fill-opacity="1" fill-rule="evenodd" stroke="#bcbcbc" stroke-dasharray="none" stroke-dashoffset="0" stroke-linecap="butt" stroke-linejoin="miter" stroke-miterlimit="4" stroke-opacity="1" stroke-width=".6" marker-mid="none" marker-start="none" d="M 183.98258,531.07819 A 7.7902536,7.7902536 0 1 1 168.40207,531.07819 A 7.7902536,7.7902536 0 1 1 183.98258,531.07819 z" color="#000" display="inline" enable-background="accumulate" opacity=".377" overflow="visible" transform="translate(-2.7529339,-0.3750966)" visibility="visible"/></g><path id="path3357" fill="url(#radialGradient24501)" fill-opacity="1" fill-rule="nonzero" stroke="none" stroke-dasharray="none" stroke-dashoffset="0" stroke-linecap="butt" stroke-linejoin="miter" stroke-miterlimit="4" stroke-opacity="1" stroke-width="2.9" marker-end="none" marker-mid="none" marker-start="none" d="M 526.78779,353.37696 C 572.64191,353.37696 582.38098,376.64998 606.66269,407.94527 C 613.03194,416.15423 596.57997,449.39834 592.98772,458.75742 L 589.03499,458.06403 C 591.20157,416.65263 569.59706,392.9316 532.75137,391.52654 C 505.20783,391.63253 471.2574,412.49365 478.67121,466.73742 L 449.28987,467.24593 C 445.69763,457.88684 443.73291,447.7222 443.73291,437.0906 C 443.73291,390.88374 480.93367,353.37696 526.78779,353.37696 z" color="#000" display="inline" enable-background="accumulate" overflow="visible" visibility="visible" style="marker:none"/><path id="path4328" fill="url(#linearGradient24498)" fill-opacity="1" fill-rule="evenodd" stroke="#087900" stroke-dasharray="none" stroke-linecap="butt" stroke-linejoin="miter" stroke-miterlimit="4" stroke-opacity="1" stroke-width="1.026" d="M 291.10963,284.96305 L 293.74581,347.44 L 470.63999,349.49505 C 422.49877,299.15081 358.81299,275.18195 291.10963,284.96305 z M 274.64843,288.27917 C 209.78092,304.1872 177.97824,346.10109 177.97824,346.10109 L 272.11709,347.1909 L 274.64843,288.27917 z"/><path id="path16269" fill="url(#linearGradient3252)" fill-opacity="1" fill-rule="evenodd" stroke="none" stroke-dasharray="none" stroke-linecap="butt" stroke-linejoin="miter" stroke-miterlimit="4" stroke-opacity="1" stroke-width="2.1" d="M 320.98677,288.50898 C 313.04465,288.55046 305.10521,289.05126 297.22045,290.0134 C 297.86614,307.16384 298.56743,324.3123 299.32654,341.45799 C 352.47515,342.06797 405.62427,342.63644 458.77317,343.2218 C 421.38556,309.07125 371.79618,287.80325 320.98677,288.50898 z M 269.46455,295.6334 C 240.17501,303.83386 212.66229,318.95661 190.71723,340.24753 C 216.86458,340.39264 243.00863,340.9182 269.15634,341.0084 C 269.64891,325.74764 270.70068,310.50686 270.88573,295.23567 C 270.412,295.36825 269.93828,295.50083 269.46455,295.6334 z" opacity=".958"/><path id="path4334" fill="url(#radialGradient27586)" fill-opacity="1" fill-rule="nonzero" stroke="none" stroke-dasharray="none" stroke-dashoffset="0" stroke-linecap="butt" stroke-linejoin="miter" stroke-miterlimit="4" stroke-opacity="1" stroke-width="2.9" marker-end="none" marker-mid="none" marker-start="none" d="M 433.81205,199.01715 A 27.198248,22.438555 0 1 1 379.41555,199.01715 A 27.198248,22.438555 0 1 1 433.81205,199.01715 z" color="#000" display="inline" enable-background="accumulate" overflow="visible" transform="matrix(0.4793068,0,0,0.4981964,267.11294,242.51922)" visibility="visible" style="marker:none"/><path id="path4336" fill="none" fill-rule="evenodd" stroke="#076c00" stroke-dasharray="none" stroke-linecap="butt" stroke-linejoin="miter" stroke-miterlimit="4" stroke-opacity="1" stroke-width="1.368" d="M 283.3765,284.44768 C 282.30017,284.44768 280.64386,388.10572 283.3765,451.79103"/><path id="path15113" fill="url(#linearGradient24490)" fill-opacity="1" fill-rule="nonzero" stroke="none" stroke-dashoffset="0" stroke-linecap="butt" stroke-linejoin="miter" stroke-miterlimit="4" stroke-opacity="1" stroke-width="2.9" marker-end="none" marker-mid="none" marker-start="none" d="M 156.36445,360.79251 C 131.41502,358.0545 92.195153,376.02844 83.931208,416.2359 C 123.63896,344.94682 185.2793,375.58198 187.09557,372.28078 C 177.94986,365.8364 167.31204,361.93399 156.36445,360.79251 z" color="#000" display="inline" enable-background="accumulate" opacity=".969" overflow="visible" visibility="visible" style="marker:none"/><path id="path16128" fill="url(#linearGradient24487)" fill-opacity="1" fill-rule="nonzero" stroke="none" stroke-dashoffset="0" stroke-linecap="butt" stroke-linejoin="miter" stroke-miterlimit="4" stroke-opacity="1" stroke-width="2.9" marker-end="none" marker-mid="none" marker-start="none" d="M 526.9787,358.24139 C 502.02927,355.50337 462.80941,373.47732 454.54546,413.68477 C 494.25322,342.39569 555.89356,373.03085 557.70982,369.72964 C 548.56411,363.28528 537.92629,359.38287 526.9787,358.24139 z" color="#000" display="inline" enable-background="accumulate" opacity=".969" overflow="visible" visibility="visible" style="marker:none"/><path id="path8360" fill="#fff" fill-opacity="1" fill-rule="evenodd" stroke="none" stroke-dasharray="none" stroke-dashoffset="0" stroke-linecap="butt" stroke-linejoin="miter" stroke-miterlimit="4" stroke-opacity="1" stroke-width="1" marker-end="none" marker-mid="none" marker-start="none" d="M 444.76892,451.65724 C 406.71546,452.85309 368.62318,452.00204 330.55315,452.41771 C 300.44145,452.54332 270.02512,452.23107 240.10168,453.06394 C 235.33033,457.37935 240.01026,456.85808 244.57933,456.55257 C 311.82046,456.18822 379.06261,456.53286 446.30416,456.40878 C 445.72953,455.27552 446.65227,451.62492 444.76892,451.65724 z" color="#000" display="inline" enable-background="accumulate" opacity=".155" overflow="visible" visibility="visible" style="marker:none"/></g></g></svg>